<svg viewBox="0 0 33 32" xmlns:xlink="http://www.w3.org/1999/xlink" width="33" height="32" xmlns="http://www.w3.org/2000/svg"><path d="M16.5.357a15.7 15.7 0 0115.7 15.7c0 8.671-7.03 15.7-15.7 15.7-8.67 0-15.7-7.029-15.7-15.7 0-8.67 7.03-15.7 15.7-15.7zm0 1.109c-8.059 0-14.591 6.533-14.591 14.591 0 8.059 6.532 14.591 14.591 14.591a14.591 14.591 0 0014.591-14.59c0-8.06-6.532-14.592-14.591-14.592zM11.615 9.76a.553.553 0 01.294.003l.098.036.086.051.086.074.06.079.042.073a.56.56 0 01.03.353l-.03.09-.05.093-.067.085-2.487 2.476h10.9l.272.007.214.017a4.634 4.634 0 01.191 9.19l-.213.027-.215.016-.265.007h-5.226l-.114-.01-.08-.02a.558.558 0 01-.035-1.03l.086-.03.085-.017.097-.003 5.204.001.24-.008.19-.019a3.525 3.525 0 00.223-6.96l-.185-.029-.185-.02-.26-.01H9.694l2.526 2.565.057.09.034.082a.571.571 0 01-.149.55.556.556 0 01-.525.146l-.09-.032-.086-.045-.086-.069-3.426-3.435-.073-.087-.038-.064a.575.575 0 01-.023-.427l.038-.085.048-.075.078-.085 3.465-3.463.088-.054.083-.034z" fill="#555555" fill-rule="nonzero"></path></svg>