<svg xmlns="http://www.w3.org/2000/svg" viewBox="145 145 505 314" class="payment-logo__bancontact"><defs><linearGradient id="a" x1="196.4595" y1="301.9891" x2="380.6994" y2="233.5572" gradientUnits="userSpaceOnUse"><stop offset="0" stop-color="#005ab9"></stop><stop offset="1" stop-color="#1e3764"></stop></linearGradient><linearGradient id="b" x1="412.6181" y1="255.4945" x2="608.2427" y2="188.752" gradientUnits="userSpaceOnUse"><stop offset="0" stop-color="#fba900"></stop><stop offset="1" stop-color="#ffd800"></stop></linearGradient></defs><path d="M145.518 457.0548v-72.7584h22.4512c16.3187 0 26.8168 6.1325 26.8168 18.8133 0 7.172-3.3261 12.1611-8.0035 15.0714 6.756 3.1178 10.7057 9.1465 10.7057 17.3579 0 14.656-10.7057 21.5158-27.3362 21.5158zm14.4477-42.5119h10.706c6.5481 0 9.3548-3.2223 9.3548-9.1465 0-6.3407-5.0933-8.4191-11.9535-8.4191h-8.1073zm0 29.831h8.9389c8.7311 0 13.8241-2.1827 13.8241-9.0426 0-6.756-4.3653-9.5624-12.5767-9.5624h-10.1863zm65.5406 13.928c-14.24 0-21.412-6.9636-21.412-16.3184 0-10.2903 8.4193-16.319 20.8922-16.4228a65.0862 65.0862 0 019.2506.8318v-2.4949c0-6.3401-3.6379-9.3547-10.6019-9.3547a36.4666 36.4666 0 00-13.7203 2.4948l-2.5984-11.2254c4.4694-1.8713 11.6414-3.1184 17.9818-3.1184 15.2793 0 22.8668 8.1075 22.8668 22.1394v28.8954c-4.2614 2.1828-12.265 4.5733-22.6589 4.5733zm8.7308-11.7451v-11.1216a34.909 34.909 0 00-7.3796-.8318c-4.7814 0-8.5232 1.8712-8.5232 6.7565 0 4.3656 3.1182 6.6522 8.627 6.6522a16.2715 16.2715 0 007.2758-1.4553zm24.0267 10.498V407.267a63.469 63.469 0 0123.4906-4.5733c15.1752 0 23.9064 7.4835 23.9064 21.3077v33.0533h-14.344V425.041c0-7.1719-3.326-10.498-9.6665-10.498a21.7997 21.7997 0 00-9.1468 1.8713v40.6407zm97.5235-51.2426l-2.7025 11.3293a31.6611 31.6611 0 00-11.7452-2.5986c-8.419 0-12.9926 5.9248-12.9926 15.6954 0 10.7057 4.7812 16.2146 13.7203 16.2146a29.4254 29.4254 0 0011.5373-2.7025l2.2866 11.5375a34.984 34.984 0 01-14.9675 3.014c-17.254 0-27.2324-10.7057-27.2324-27.6483 0-16.8382 9.8745-27.9598 26.4011-27.9598a40.0639 40.0639 0 0115.695 3.1185zm30.9873 52.4898c-16.007 0-25.9853-11.1216-25.9853-27.856 0-16.6305 9.9783-27.7521 25.9853-27.7521 16.1108 0 25.8811 11.1216 25.8811 27.7521 0 16.7343-9.7703 27.856-25.8811 27.856zm0-11.849c7.3799 0 11.2254-6.1325 11.2254-16.007 0-9.7706-3.8455-15.903-11.2254-15.903-7.2758 0-11.3296 6.1324-11.3296 15.903 0 9.8745 4.0538 16.007 11.3296 16.007zm34.1817 10.6018v-49.7877a63.469 63.469 0 0123.4907-4.5733c15.1751 0 23.9063 7.4835 23.9063 21.3077v33.0533h-14.344V425.041c0-7.1719-3.326-10.498-9.6664-10.498a21.7997 21.7997 0 00-9.1468 1.8713v40.6407zm79.7456 1.2472c-12.3688 0-18.7092-6.756-18.7092-20.4764v-22.451h-7.0681V403.941h7.068v-11.5375l14.3437-.7274v12.2649h11.5375v11.4337h-11.5375v22.2432c0 6.0286 2.4949 8.835 7.172 8.835a25.2043 25.2043 0 005.5089-.6236l.7276 11.5376a39.6467 39.6467 0 01-9.0429.9351zm36.2049 0c-14.24 0-21.412-6.9637-21.412-16.3185 0-10.2903 8.4193-16.319 20.8922-16.4228a65.0864 65.0864 0 019.2507.8318v-2.4948c0-6.3402-3.638-9.3548-10.602-9.3548a36.4667 36.4667 0 00-13.7202 2.4949l-2.5985-11.2255c4.4695-1.8713 11.6414-3.1184 17.9818-3.1184 15.2793 0 22.8669 8.1075 22.8669 22.1394v28.8954c-4.2615 2.1828-12.265 4.5733-22.659 4.5733zm8.7309-11.7452v-11.1216a34.9096 34.9096 0 00-7.38-.8318c-4.7811 0-8.5229 1.8712-8.5229 6.7565 0 4.3656 3.1182 6.6522 8.627 6.6522a16.2707 16.2707 0 007.2759-1.4553zm63.0033-40.7445l-2.7025 11.3293a31.661 31.661 0 00-11.7452-2.5987c-8.4191 0-12.9927 5.9248-12.9927 15.6954 0 10.7057 4.7813 16.2146 13.7203 16.2146a29.4255 29.4255 0 0011.5373-2.7025l2.287 11.5375a34.9858 34.9858 0 01-14.9676 3.014c-17.2543 0-27.2326-10.7057-27.2326-27.6483 0-16.8382 9.8744-27.9598 26.4008-27.9598a40.0643 40.0643 0 0115.6952 3.1185zm31.5364 52.4897c-12.3688 0-18.7093-6.756-18.7093-20.4764v-22.451H614.4V403.941h7.0681v-11.5375l14.3436-.7274v12.2649h11.5375v11.4337h-11.5374v22.2432c0 6.0286 2.4948 8.835 7.172 8.835a25.2043 25.2043 0 005.5088-.6236l.7277 11.5376a39.6467 39.6467 0 01-9.043.9351z" fill="#1e3764"></path><path d="M245.569 347.9174c75.9 0 113.85-50.6002 151.8-101.2003H145.518v101.2003z" fill="url(#a)"></path><path d="M549.1692 145.5168c-75.9 0-113.85 50.6001-151.8 101.2003h251.851V145.5168z" fill="url(#b)"></path></svg>