<svg viewBox="0 0 41 36" xmlns:xlink="http://www.w3.org/1999/xlink" width="41" height="36" xmlns="http://www.w3.org/2000/svg"><path d="M17.142.108a.513.513 0 01.129.026l.06.025 15.75 7.313.076.04c.117.078.198.201.222.34l.008.084v9.562l-.007.091a.512.512 0 01-1.011 0l-.007-.09V8.903l-.051.02v-.02l-4.07 1.711-10.573 4.395-.03 15.11.049-.025v.024l1.202-.568 2.915-1.32-.14-.35c-.357-.932-.552-1.834-.552-2.754.047-2.512 2.245-4.766 5.224-4.766 1.694 0 3.276.76 4.25 1.95l.033-.037c.047-.045.089-.094.133-.144a5.821 5.821 0 014.161-1.769c2.978 0 5.177 2.254 5.223 4.767 0 2.227-1.093 4.28-3.113 6.256l-.378.36-.387.352-.4.345-.206.172-.212.172-.441.346-.23.175-.484.357-.517.367-.556.384-.917.611-.672.438-.727.467a.512.512 0 01-.457.043l-.087-.043-.727-.467-.99-.647-.598-.403-.82-.568-.5-.362-.467-.352-.441-.346-.418-.344-.4-.345-.387-.351a21.374 21.374 0 01-.378-.36 13.18 13.18 0 01-1.638-1.914l-.218-.328-5.02 2.32-.084.03a.513.513 0 01-.264 0l-.084-.03-15.75-7.313-.074-.04a.513.513 0 01-.223-.34l-.007-.084V7.936l.007-.085a.513.513 0 01.222-.338l.075-.041L16.982.13l.062-.019.098-.003zm17.771 21.277c-1.602 0-3.26.947-3.84 2.048a.512.512 0 01-.897 0c-.58-1.1-2.238-2.048-3.84-2.048-2.35 0-4.043 1.685-4.19 3.558l-.009.182.007.279c.089 1.815 1.046 3.523 2.803 5.242 1 .979 2.147 1.88 3.713 2.949l.4.27.739.49.798.516.775-.492.888-.578.168-.112.64-.435.302-.211.571-.413a21.888 21.888 0 002.36-1.984c1.758-1.719 2.715-3.427 2.804-5.242l.006-.26-.009-.2c-.146-1.874-1.84-3.559-4.189-3.559zM1.958 8.857l-.07.046v14.43l14.654 6.848-.001-.056.022.01-.001-4.482.05-10.598L1.959 8.857zm22.518-4.27h-.042l-14.237 6.538.06.026-.04.02 2.722 1.141 4.167 1.804 14.54-6.099-.061-.03.041-.016-2.847-1.327-4.303-2.058zM16.03 8.5l-5.751 2.641-.042-.017L16.03 8.5zm1.116-7.306h-.042l-14.5 6.732.06.025-.04.02 2.462 1.034 3.706 1.614 14.33-6.557-.06-.029.04-.017-2.36-1.097-3.596-1.725zm14.417 6.802l.042.02-5.912 2.45 5.87-2.47zM8.483 5.25L2.686 7.942l-.041-.017 5.84-2.676zm14.558-1.206l.04.019-5.65 2.554 5.61-2.573z" fill="#555555" fill-rule="nonzero"></path></svg>