<svg width="32" height="32" viewBox="0 0 32 32" version="1.1" xmlns="http://www.w3.org/2000/svg" xmlns:xlink="http://www.w3.org/1999/xlink">
        <g fill="#222222">
            <polygon points="21.5117188 12.0546875 17.2929688 16.2382812 21.5117188 20.421875 20.4570312 21.4765625 16.2382812 17.2929688 12.0546875 21.4765625 11 20.421875 15.1835938 16.2382812 11 12.0546875 12.0546875 11 16.2382812 15.1835938 20.4570312 11" fill="#222222"></polygon>
            <path d="M16,31.5 C7.43958638,31.5 0.5,24.5604136 0.5,16 C0.5,7.43958638 7.43958638,0.5 16,0.5 C24.5604136,0.5 31.5,7.43958638 31.5,16 C31.5,24.5604136 24.5604136,31.5 16,31.5 Z M16,30.5 C24.0081289,30.5 30.5,24.0081289 30.5,16 C30.5,7.99187113 24.0081289,1.5 16,1.5 C7.99187113,1.5 1.5,7.99187113 1.5,16 C1.5,24.0081289 7.99187113,30.5 16,30.5 Z" fill="#222222"></path>
        </g>
    </svg>