<svg width="15" height="15" viewBox="0 0 15 15" version="1.1" xmlns="http://www.w3.org/2000/svg" xmlns:xlink="http://www.w3.org/1999/xlink">
        <g stroke="none" stroke-width="1" fill="none" fill-rule="evenodd">
            <g transform="translate(-290.000000, -17.000000)" fill="#000000" fill-rule="nonzero">
                <path d="M304.71914,17.286061 C304.34466,16.9115811 303.762136,16.9115811 303.387656,17.286061 L297.5,23.1737171 L291.612344,17.286061 C291.237864,16.9115811 290.65534,16.9115811 290.28086,17.286061 C289.90638,17.6605409 289.90638,18.2430652 290.28086,18.6175451 L296.168516,24.5052011 L290.28086,30.3928571 C289.90638,30.767337 289.90638,31.3498613 290.28086,31.7243412 C290.4681,31.9115811 290.696949,31.9947989 290.946602,31.9947989 C291.196255,31.9947989 291.425104,31.9115811 291.612344,31.7243412 L297.5,25.8366852 L303.387656,31.7243412 C303.574896,31.9115811 303.803745,31.9947989 304.053398,31.9947989 C304.303051,31.9947989 304.5319,31.9115811 304.71914,31.7243412 C305.09362,31.3498613 305.09362,30.767337 304.71914,30.3928571 L298.831484,24.5052011 L304.71914,18.6175451 C305.072816,18.2430652 305.072816,17.6605409 304.71914,17.286061 Z" id="Shape"></path>
            </g>
        </g>
    </svg>