<svg xmlns:xlink="http://www.w3.org/1999/xlink" id="heart" class="active-state" xmlns="http://www.w3.org/2000/svg" width="25" height="25" viewBox="0 0 25 25">
        <path d="M12.42,2.5c.53-.5,1.64-1.42,3.28-1.8,2.91-.67,5.17,.89,5.61,1.2,.48,.34,2.17,1.6,2.89,4.02,.57,1.91,.26,3.51,.11,4.24-.08,.39-.2,.95-.53,1.64-.27,.57-.62,1.03-1.31,1.94-.39,.51-.75,.93-1.1,1.3h0c-.78,.84-3,3.22-6.13,6.55-.79,.84-1.64,1.74-2.53,2.69l-2.53-2.57c-1.02-1.01-2.06-2.06-3.1-3.15-1.55-1.63-3.02-3.24-4.39-4.83-.41-.49-.94-1.22-1.39-2.2-.09-.2-.31-.7-.47-1.25-.66-2.25-.06-4.34-.03-4.44,0,0,.62-2.14,2.58-3.82,.11-.09,.22-.19,.38-.3C5.25,.62,7.49,.17,9.53,.76c1.4,.41,2.36,1.2,2.89,1.74Z" fill="#FA3D45" stroke="#FA3D45" stroke-miterlimit="10"></path>
    </svg>