<svg xmlns:xlink="http://www.w3.org/1999/xlink" width="120" height="80" viewBox="0 0 120 80" xmlns="http://www.w3.org/2000/svg"><g fill="none" fill-rule="evenodd"><rect fill="#FFFFFF" width="120" height="80" rx="4"></rect><path d="M15 5.93v68.14C15 77.33 17.676 80 20.946 80h40.817C92.622 80 106 62.772 106 39.911 106 17.168 92.622 0 61.763 0H20.946C17.676 0 15 2.669 15 5.93" fill="#FFFFFF"></path><path d="M42 16.785V67h21.723C83.446 67 92 55.792 92 39.94 92 24.77 83.446 13 63.723 13h-17.96C43.674 13 42 14.715 42 16.785" fill="#CC0066"></path><path d="M61.25 5C94.97 5 100 26.58 100 39.426 100 61.716 86.22 74 61.25 74H25.714C22.56 74 20 71.455 20 68.317V10.683C20 7.546 22.56 5 25.714 5H61.25zm0 1.894H25.714a3.788 3.788 0 00-3.81 3.79v57.633a3.787 3.787 0 003.81 3.789H61.25c23.75 0 36.845-11.604 36.845-32.68C98.095 11.127 75 6.894 61.25 6.894z" fill="#000"></path><path d="M32 48c2.197 0 4 1.853 4 4.177V67h-.028C31.549 67 28 63.265 28 58.677v-6.5C28 49.883 29.775 48 32 48zm.5-14a5.5 5.5 0 110 11 5.5 5.5 0 010-11z" fill="#000"></path><path d="M50.316 33v.03c.799 0 1.536.118 2.243.354.706.236 1.29.621 1.813 1.094.491.502.89 1.123 1.198 1.832.276.74.43 1.596.43 2.601 0 .887-.123 1.685-.338 2.424-.246.74-.584 1.39-1.045 1.921-.46.532-1.044.946-1.751 1.271-.707.296-1.536.473-2.489.473H45V33h5.316zm-.646 2.276h-1.966v7.567h2.427v-.03c.4 0 .768-.06 1.168-.178.369-.118.707-.324.983-.62.277-.296.522-.65.707-1.123.184-.473.276-1.005.276-1.685 0-.591-.061-1.153-.184-1.626-.123-.473-.338-.916-.615-1.241a2.766 2.766 0 00-1.106-.798c-.46-.177-1.014-.266-1.69-.266zM75.417 33L80 45h-2.804l-.934-2.66h-4.583L70.714 45H68l4.613-12h2.804zm-1.387 2.956H74l-1.598 4.404h3.166l-1.538-4.404zM65.854 33.03v2.216H59.6v2.572h5.756v2.04h-5.756v2.925H66V45h-9V33h8.854zM83.79 33v9.783H90V45h-9V33z" fill="#FFFFFF"></path></g></svg>