<svg class="w-100" width="213" height="32" version="1.1" id="Laag_1" xmlns="http://www.w3.org/2000/svg" xmlns:xlink="http://www.w3.org/1999/xlink" x="0px" y="0px" viewBox="0 0 700 100" style="enable-background:new 0 0 700 100;" xml:space="preserve">
<style type="text/css">
    .sl0{fill:#1D1E1D;}
</style>
    <g>
        <path class="sl0" d="M9.3,74.3c0.8-1.2,1.6-2.6,2.4-3.8c0.8-1.2,2.2-1.6,3.2-0.7c0.6,0.5,7.8,6.5,15,6.5c6.5,0,10.6-3.9,10.6-8.7
		c0-5.6-4.9-9.2-14.1-13c-9.5-4-17-9-17-19.8c0-7.3,5.6-17.3,20.5-17.3c9.3,0,16.4,4.9,17.3,5.5c0.7,0.5,1.5,1.8,0.6,3.2
		c-0.7,1.1-1.6,2.4-2.3,3.6c-0.7,1.2-2,1.8-3.3,0.9c-0.7-0.4-7.2-4.7-12.6-4.7c-7.9,0-10.6,5-10.6,8.4c0,5.3,4.1,8.6,11.9,11.8
		c10.8,4.4,20.1,9.5,20.1,20.9c0,9.7-8.7,17.7-20.8,17.7c-11.4,0-18.6-6-20.1-7.4C9,76.5,8.3,75.9,9.3,74.3z" fill="#1D1E1D"></path>
        <path class="sl0" d="M91.7,20.1c0-0.9,0.7-1.8,1.8-1.8h37.4c1,0,1.8,0.8,1.8,1.8v5.2c0,0.9-0.7,1.8-1.8,1.8h-29.5v19.1h25
		c0.9,0,1.8,0.8,1.8,1.8v5.2c0,1-0.8,1.8-1.8,1.8h-25V75h29.5c1,0,1.8,0.8,1.8,1.8V82c0,0.9-0.7,1.8-1.8,1.8H93.5
		c-1,0-1.8-0.8-1.8-1.8V20.1z" fill="#1D1E1D"></path>
        <path class="sl0" d="M182,18.8c0.2-0.7,0.9-1.4,1.7-1.4h1.5c0.6,0,1.4,0.5,1.6,1l19.5,47.8h0.4l19.4-47.8c0.2-0.6,0.9-1,1.6-1h1.5
		c0.7,0,1.5,0.7,1.7,1.4l11.5,62.8c0.3,1.3-0.4,2.2-1.7,2.2h-6.1c-0.8,0-1.6-0.7-1.8-1.3l-6.9-41.8c-0.1,0-0.3,0-0.3,0l-16.8,43
		c-0.2,0.6-0.7,1-1.6,1h-1.7c-0.7,0-1.4-0.5-1.6-1l-16.9-43c-0.1,0-0.3,0-0.4,0l-6.7,41.8c-0.1,0.7-0.9,1.3-1.7,1.3h-6.1
		c-1.3,0-2-0.8-1.8-2.2L182,18.8z" fill="#1D1E1D"></path>
        <path class="sl0" d="M328.1,20.1c0-0.9,0.7-1.8,1.8-1.8h6.2c0.9,0,1.8,0.8,1.8,1.8v55h25.3c1,0,1.8,0.8,1.8,1.8V82
		c0,0.9-0.7,1.8-1.8,1.8h-33.3c-1,0-1.8-0.8-1.8-1.8V20.1z" fill="#1D1E1D"></path>
        <path class="sl0" d="M402.8,20.1c0-0.9,0.7-1.8,1.8-1.8h37.4c1,0,1.8,0.8,1.8,1.8v5.2c0,0.9-0.7,1.8-1.8,1.8h-29.5v19.1h25
		c0.9,0,1.8,0.8,1.8,1.8v5.2c0,1-0.8,1.8-1.8,1.8h-25V75h29.5c1,0,1.8,0.8,1.8,1.8V82c0,0.9-0.7,1.8-1.8,1.8h-37.4
		c-1,0-1.8-0.8-1.8-1.8V20.1z" fill="#1D1E1D"></path>
        <path class="sl0" d="M479.9,20.5c-0.4-1.3,0.4-2.2,1.7-2.2h6.3c0.7,0,1.5,0.7,1.7,1.3l11.3,42.9h0.4l15.2-44.1c0.2-0.6,0.8-1,1.6-1
		h1.7c0.7,0,1.4,0.5,1.6,1l15.4,44.1h0.4l11.1-42.9c0.2-0.7,0.9-1.3,1.7-1.3h6.3c1.3,0,2.1,0.9,1.7,2.2l-17.7,62.8
		c-0.2,0.7-0.9,1.3-1.7,1.3H537c-0.7,0-1.4-0.5-1.6-1L519,37.2h-0.5l-16.2,46.5c-0.2,0.6-0.9,1-1.6,1h-1.5c-0.7,0-1.5-0.6-1.7-1.3
		L479.9,20.5z" fill="#1D1E1D"></path>
        <path class="sl0" d="M597.8,20.1c0-0.9,0.8-1.8,1.8-1.8h6.2c0.9,0,1.8,0.8,1.8,1.8V82c0,0.9-0.8,1.8-1.8,1.8h-6.2
		c-0.9,0-1.8-0.8-1.8-1.8V20.1z" fill="#1D1E1D"></path>
        <path class="sl0" d="M649.5,74.3c0.8-1.2,1.6-2.6,2.4-3.8c0.8-1.2,2.2-1.6,3.2-0.7c0.6,0.5,7.8,6.5,15,6.5c6.5,0,10.6-3.9,10.6-8.7
		c0-5.6-4.9-9.2-14.1-13c-9.5-4-17-9-17-19.8c0-7.3,5.6-17.3,20.5-17.3c9.3,0,16.4,4.9,17.3,5.5c0.7,0.5,1.5,1.8,0.6,3.2
		c-0.7,1.1-1.6,2.4-2.3,3.6c-0.7,1.2-2,1.8-3.3,0.9c-0.7-0.4-7.2-4.7-12.6-4.7c-7.9,0-10.6,5-10.6,8.4c0,5.3,4.1,8.6,11.9,11.8
		C681.7,50.5,691,55.6,691,67c0,9.7-8.7,17.7-20.8,17.7c-11.4,0-18.6-6-20.1-7.4C649.2,76.5,648.6,75.9,649.5,74.3z" fill="#1D1E1D"></path>
    </g>
</svg>