<svg xmlns:xlink="http://www.w3.org/1999/xlink" width="120" height="80" viewBox="0 0 120 80" class="h-32p" xmlns="http://www.w3.org/2000/svg"><g fill="none" fill-rule="evenodd"><rect fill="#FFFFFF" width="120" height="80" viewBox="0 0 120 80" rx="4"></rect><path d="M86.712 68.702v.155h.143a.143.143 0 00.078-.02c.019-.012.029-.032.029-.059a.065.065 0 00-.03-.057.143.143 0 00-.077-.019h-.143zm.144-.108c.075 0 .132.016.172.049.04.033.06.078.06.135a.158.158 0 01-.047.12.232.232 0 01-.138.056l.19.22h-.148l-.176-.218h-.057v.217h-.123v-.58h.267zm-.037.778c.068 0 .13-.012.189-.038a.482.482 0 00.294-.449.481.481 0 00-.483-.484.492.492 0 00-.347.14.482.482 0 00-.14.344.482.482 0 00.487.487zm0-1.11a.627.627 0 01.45.183.632.632 0 01.185.44.602.602 0 01-.185.44.627.627 0 01-.45.185.644.644 0 01-.59-.382.591.591 0 01-.05-.243.63.63 0 01.64-.624zm-9.447-5.517c.276 0 .67.053.971.17l-.42 1.287a2.22 2.22 0 00-.853-.158c-.892 0-1.338.577-1.338 1.614v3.517h-1.364v-6.272h1.351v.76c.354-.55.866-.918 1.653-.918zm-4.723 1.404h-2.23v2.834c0 .63.223 1.05.905 1.05.354 0 .8-.118 1.208-.355l.393 1.169c-.433.301-1.115.485-1.706.485-1.613 0-2.178-.866-2.178-2.322v-2.861H67.77v-1.246h1.272V61h1.378v1.903h2.23v1.246zm-6.556.354c-.38-.236-1.155-.537-1.956-.537-.747 0-1.194.275-1.194.734 0 .42.473.538 1.063.617l.643.092c1.365.197 2.191.774 2.191 1.876 0 1.194-1.05 2.047-2.86 2.047-1.023 0-1.968-.263-2.716-.814l.643-1.062c.459.354 1.142.655 2.086.655.932 0 1.43-.275 1.43-.76 0-.354-.354-.552-1.102-.656l-.643-.092c-1.403-.197-2.165-.827-2.165-1.85 0-1.247 1.024-2.008 2.612-2.008.996 0 1.902.223 2.558.656l-.59 1.102zm-10.418.984c.144-.905.695-1.521 1.666-1.521.88 0 1.444.55 1.587 1.521h-3.253zm4.67.552c-.012-1.956-1.22-3.294-2.978-3.294-1.837 0-3.122 1.338-3.122 3.294 0 1.994 1.338 3.293 3.214 3.293.945 0 1.811-.236 2.572-.879l-.67-1.01a2.988 2.988 0 01-1.823.655c-.88 0-1.68-.406-1.877-1.534h4.658c.014-.171.027-.341.027-.525zm21.775-2.01c-.28 0-.54.048-.78.146a1.85 1.85 0 00-1.034 1.048c-.101.247-.15.519-.15.816 0 .297.049.569.15.815a1.85 1.85 0 001.035 1.048c.24.098.5.147.779.147s.539-.049.779-.147c.24-.099.449-.236.625-.413.177-.176.316-.389.416-.635.1-.246.151-.518.151-.815 0-.297-.05-.569-.15-.816-.101-.246-.24-.458-.417-.635a1.884 1.884 0 00-.625-.413c-.24-.098-.5-.147-.78-.147zm0-1.291c.484 0 .933.084 1.346.252a3.181 3.181 0 011.778 1.738c.17.403.255.839.255 1.31 0 .472-.085.909-.255 1.31a3.177 3.177 0 01-1.778 1.74 3.532 3.532 0 01-1.346.251c-.485 0-.933-.084-1.346-.252a3.246 3.246 0 01-1.068-.694 3.199 3.199 0 01-.704-1.045 3.32 3.32 0 01-.256-1.31c0-.471.086-.907.256-1.31.17-.4.405-.75.704-1.044a3.246 3.246 0 011.068-.694 3.531 3.531 0 011.346-.252zm-34.277 3.3c0-1.102.721-2.007 1.902-2.007 1.129 0 1.89.866 1.89 2.008 0 1.14-.761 2.007-1.89 2.007-1.18 0-1.902-.906-1.902-2.007zm5.077 0v-3.135h-1.364v.76c-.433-.564-1.09-.918-1.981-.918-1.76 0-3.136 1.378-3.136 3.294 0 1.915 1.377 3.293 3.136 3.293.892 0 1.548-.355 1.98-.918v.76h1.365V66.04zm-7.689 3.137v-3.937c0-1.483-.945-2.48-2.466-2.493-.8-.013-1.628.237-2.205 1.116-.433-.696-1.115-1.116-2.073-1.116-.67 0-1.325.197-1.837.932v-.774h-1.365v6.272h1.378v-3.477c0-1.09.604-1.667 1.536-1.667.905 0 1.364.59 1.364 1.653v3.49h1.378v-3.476c0-1.09.63-1.667 1.535-1.667.931 0 1.377.59 1.377 1.653v3.49h1.378z" fill="#000"></path><path fill="#7375CF" d="M50.014 52.573h20.695v-37.19H50.014z"></path><path d="M51.328 33.979c0-7.545 3.532-14.265 9.033-18.596a23.55 23.55 0 00-14.617-5.056c-13.062 0-23.65 10.589-23.65 23.652 0 13.062 10.588 23.651 23.65 23.651a23.55 23.55 0 0014.617-5.056c-5.5-4.33-9.033-11.05-9.033-18.595" fill="#EB001B"></path><path d="M97.89 48.635v-.918h-.24l-.275.631-.276-.631h-.24v.918h.17v-.693l.258.597h.176l.259-.598v.694h.168zm-1.517 0v-.762h.307v-.155h-.782v.155h.307v.762h.168z" fill="#00A1DF"></path><path d="M98.629 33.979c0 13.062-10.588 23.651-23.65 23.651a23.55 23.55 0 01-14.618-5.056c5.502-4.33 9.034-11.05 9.034-18.595 0-7.545-3.532-14.265-9.034-18.596a23.55 23.55 0 0114.618-5.056c13.062 0 23.65 10.589 23.65 23.652" fill="#00A2E5"></path></g></svg>