<svg xmlns:xlink="http://www.w3.org/1999/xlink" xmlns="http://www.w3.org/2000/svg" fill="none" viewBox="0 0 924 104" width="924"  height="104" ><path fill="#282828" d="M924 .0439729 880.446 57.343v46.613h-23.961V57.343L812.931.0439729h29.703L869.138 35.341 895.437.0439729H924Zm-242.535 0V20.5655h38.397V104h23.756V20.5215h38.353V0L681.465.0439729ZM562.638 20.5655h35.342c10.505 0 15.385 3.9724 15.385 12.3715 0 8.3992-4.88 12.3715-15.385 12.3715h-35.342v-24.743ZM642.616 104l-27.278-40.0462c14.61-3.9724 22.237-14.5116 22.237-31.0168 0-21.401-12.945-32.8490543-37.009-32.8490543h-61.685V104h23.757V65.7421h26.196l25.744 38.2139 28.038.044ZM379.626.0879457V104h93.668V83.4785h-69.868V61.931h60.035V41.4095h-60.035v-20.888h69.912V0l-93.712.0879457Zm-74.514 0L274.547 76.9117 243.777.0586454h-25.773L261.719 103.971h24.37L329.804.0586454l-24.692.0293003ZM144.104 103.956h23.757V.0439729h-23.757V103.956ZM0 103.956h23.7568V23.8636H0v80.0924Zm23.7568-80.0778h79.8172V.0293003H23.7568V23.8782Z"></path></svg>