<svg width="20" height="20" viewBox="0 0 20 20" version="1.1" xmlns="http://www.w3.org/2000/svg" xmlns:xlink="http://www.w3.org/1999/xlink">
        <g stroke="none" stroke-width="1" fill="none" fill-rule="evenodd">
            <g transform="translate(-77.000000, -27.000000)" fill="#000000" fill-rule="nonzero">
                <g transform="translate(28.000000, 26.794557)">
                    <g transform="translate(49.000000, 0.000000)">
                        <path d="M8.27278455,0.899860775 C12.5701683,0.899860775 16.0665217,4.39621418 16.0665217,8.69359795 C16.0665217,10.4617602 15.4683331,12.1417326 14.387132,13.5112067 L14.387132,13.5112067 L14.2769241,13.6507985 L19.47,18.844 L18.423,19.891 L13.2299851,14.6977375 L13.0903933,14.8079454 L12.8300325,15.0049822 C11.5105782,15.9615834 9.93043663,16.4873351 8.27278455,16.4873351 C3.97540077,16.4873351 0.479047368,12.9909817 0.479047368,8.69359795 C0.479047368,4.39621418 3.97540077,0.899860775 8.27278455,0.899860775 Z M8.27278455,2.38074011 C4.79163668,2.38074011 1.9599267,5.21252527 1.9599267,8.69359795 C1.9599267,12.1746706 4.79163668,15.0064558 8.27278455,15.0064558 C11.7540876,15.0064558 14.5856424,12.1747506 14.5856424,8.69359795 C14.5856424,5.2124453 11.7540876,2.38074011 8.27278455,2.38074011 Z" id="Combined-Shape"></path>
                    </g>
                </g>
            </g>
        </g>
    </svg>