<svg viewBox="0 0 51 26" xmlns:xlink="http://www.w3.org/1999/xlink" width="51" height="26" xmlns="http://www.w3.org/2000/svg"><path d="M38.1.338l.085.009a.55.55 0 01.411.41l.009.086v3.34h5.658l.292.006c1.74.07 3.308.765 4.426 1.976 1.226 1.32 1.883 3.15 1.946 5.43l.005.363v9.85l-.01.086a.55.55 0 01-.41.41l-.085.01h-3.233l-.05.332-.032.173a3.3 3.3 0 01-3.217 2.602 3.3 3.3 0 01-3.216-2.596l-.033-.18-.05-.332H25.174l-.05.333-.031.173a3.3 3.3 0 01-3.218 2.602 3.293 3.293 0 01-3.215-2.642l-.033-.184-.078-.534-.483.241-.012.004-.044.006-3.615.001-.085-.008a.55.55 0 01-.41-.411l-.01-.085V.843l.01-.086a.55.55 0 01.41-.41l.085-.01H38.1zm5.795 19.447a2.28 2.28 0 00-2.287 2.287 2.28 2.28 0 002.287 2.287 2.28 2.28 0 002.287-2.287 2.28 2.28 0 00-2.287-2.287zm-21.967 0a2.28 2.28 0 00-2.287 2.287 2.28 2.28 0 002.287 2.287c1.214 0 2.224-1.01 2.287-2.268a2.283 2.283 0 00-2.287-2.306zM37.543 1.348H14.9V21.25h3.025l.08.008.085.023.081.033.408.204.139-.434.061-.173c.484-1.255 1.728-2.137 3.096-2.137 1.384 0 2.619.85 3.097 2.087l.06.17.14.434.407-.204.015-.005.025-.003 11.924-.003V1.348zm6.72 3.845h-5.605v16.058h2.041l.09-.267.06-.168a3.273 3.273 0 013.046-2.04c1.312 0 2.51.829 3.04 2.044l.07.176.094.255h2.823v-9.346l-.003-.266c-.09-3.863-2.142-6.332-5.425-6.442l-.23-.004zm-34.24 10.738l.085.008c.225.046.42.267.42.496 0 .23-.195.45-.42.496l-.085.01H3.937c-.238-.02-.424-.232-.424-.506 0-.23.195-.45.42-.496l.085-.008h6.005zm.053-5.11l.085.009c.225.046.42.266.42.496 0 .23-.195.45-.42.496l-.085.009h-7.27l-.085-.01c-.225-.045-.42-.266-.42-.495 0-.23.195-.45.42-.496l.085-.01h7.27zm0-5.163l.085.01c.225.045.42.266.42.495 0 .23-.195.45-.42.496l-.085.01h-8.64l-.085-.01c-.225-.046-.42-.266-.42-.496 0-.23.195-.45.42-.496l.085-.009h8.64z" fill="#555555" fill-rule="nonzero"></path></svg>