<svg xmlns:xlink="http://www.w3.org/1999/xlink" xmlns="http://www.w3.org/2000/svg" width="800" height="264" viewBox="0 0 800 264"><path d="M615.183 56.282c-4.075 11.074-11.388 17.924-25.302 17.924h-.052l-7.198-.011 12.304-33.512h7c12.809.009 17.592 3.788 13.248 15.599m36.922-30.613c-6.255-9.101-18.992-13.57-38.94-13.59H566.98l-49.955 138.572h42.434l18.157-48.778c.887 2 11.604 48.778 11.604 48.778h44.602s-8.112-34.373-14.078-48.257c-1.536-3.564-3.134-7.568-5.268-10.905 12.598-4.73 30.853-14.879 38.41-35.457 4.648-12.648 4.377-22.859-.78-30.363m-426.36-13.67h-78.664c-12.405 0-24.446 0-35.244 5.528-10.796 5.536-20.32 16.61-27.66 38.752-1.59 4.766-2.433 8.866-2.539 12.421-.11 3.581.503 6.613 1.84 9.253 1.65 3.213 4.326 6.249 7.672 8.804 3.348 2.547 7.36 4.632 11.679 5.96.17.044 2.438.7 5.186 1.488a855.197 855.197 0 017.977 2.37c1.186.367 2.497.845 3.683 1.561 1.183.71 2.242 1.662 2.914 2.99a6.832 6.832 0 01.7 2.864c.028 1.031-.143 2.144-.548 3.312-1.005 3.015-2.531 4.943-5.437 6.137-2.9 1.177-7.18 1.563-13.662 1.616h-80.95l-12.8 35.504h86.653c8.148 0 23.056 0 37.38-6.147 14.325-6.148 28.064-18.434 33.878-43.017 2.191-9.244 1.517-16.764-2.073-22.677-3.589-5.918-10.096-10.197-19.556-12.943 0 0-2.118-.621-4.61-1.347-2.489-.718-5.353-1.545-6.823-1.974-2.423-.7-4.282-2.119-5.383-3.922-1.098-1.796-1.43-3.985-.802-6.221.646-2.314 2.218-4.172 4.487-5.447 2.282-1.272 5.277-1.973 8.77-1.973h50.366c.35-.524.672-1.078 1.03-1.6 9.204-13.144 20.34-23.78 32.537-31.293" fill="#EE7F00"></path><path d="M262.697 80.642c-11.754 32.499-20.29 40.683-33.134 40.683h-.025c-12.514-.02-16.9-8.014-5.188-40.358 8.74-24.15 20.068-39.599 33.763-39.599h.008c13.033.02 16.02 7.645 4.576 39.274M303.04 24.98c-6.858-9.905-18.587-14.943-34.91-14.96-10.683 0-21.046 2.477-30.768 7.11-13.892 6.64-26.492 17.725-36.778 32.432-6.676 9.55-12.392 20.607-16.88 32.984-8.447 23.36-8.347 42.316.287 54.808 4.901 7.056 15.067 15.493 35.754 15.509h.08c37.687 0 65.83-24.949 83.646-74.158 4.703-13.03 10.915-37.325-.43-53.725m150.605-12.982h-80.17c-22.413 0-39.095 11.453-46.977 32.893L288.42 150.56h41.714L349.7 96.233l36.868.03 10.484-29.09-36.745-.025L366.22 50.3c1.24-3.014 4.183-5.419 8.5-5.419 2.398 0 29.455.009 43.467.017.358-.52.682-1.087 1.04-1.608 9.197-13.144 22.22-23.78 34.418-31.293m36.463 68.644c-11.746 32.499-20.283 40.683-33.126 40.683h-.027c-12.52-.02-16.89-8.014-5.186-40.358 8.731-24.15 20.067-39.599 33.761-39.599h.019c13.024.02 16.01 7.645 4.56 39.274m40.35-55.662c-6.866-9.905-18.587-14.943-34.922-14.96-10.671 0-21.035 2.477-30.748 7.11-13.9 6.64-26.493 17.725-36.787 32.432-6.686 9.55-12.395 20.607-16.88 32.984-8.447 23.36-8.347 42.316.296 54.808 4.888 7.056 15.059 15.493 35.763 15.509h.055c37.702 0 65.846-24.949 83.644-74.158 4.72-13.03 10.924-37.325-.42-53.725M654.007 12.077c2.683 2.146 5 4.592 6.93 7.395 4.928 7.181 6.82 15.722 5.699 25.507H691.9l-38.09 105.696h38.053l38.1-105.696h48.879l11.857-32.901H654.007z" fill="#EE7F00"></path><path d="M78.714 171.734c-.898 2.477-2.02 4.217-3.357 5.207-1.337.994-3.357 1.49-6.057 1.49s-4.353-.476-4.935-1.437c-.586-.952-.442-2.628.421-5.044.917-2.521 2.018-4.265 3.338-5.24 1.32-.97 3.331-1.462 6.031-1.462 2.703 0 4.353.474 4.964 1.41.61.94.476 2.627-.405 5.076m-23.004 0c-.895 2.477-1.999 4.217-3.327 5.207-1.32.994-3.331 1.49-6.03 1.49-2.712 0-4.354-.476-4.956-1.437-.609-.952-.474-2.628.396-5.044.907-2.521 2.029-4.265 3.357-5.24 1.328-.97 3.336-1.462 6.001-1.462 2.739 0 4.408.474 4.994 1.41.59.94.446 2.627-.435 5.076m12.325 55.932c-1.519 4.217-3.501 7.988-5.935 11.317-2.42 3.34-5.238 6.156-8.46 8.454-3.214 2.309-6.795 4.057-10.735 5.268-3.948 1.202-8.194 1.801-12.753 1.801-4.282 0-7.935-.535-10.95-1.622-3.016-1.076-5.302-2.718-6.866-4.917-1.552-2.2-2.36-4.926-2.43-8.213-.064-3.273.7-7.106 2.277-11.505l15.08-41.841c.134-.358.35-.672.663-.958.306-.278.771-.513 1.382-.692.603-.171 1.366-.316 2.281-.42.915-.11 2.054-.166 3.428-.166 1.338 0 2.423.056 3.258.165.835.104 1.49.25 1.957.421.455.179.754.414.877.692.126.286.126.6 0 .958L26.473 227.02c-.986 2.735-1.509 5.106-1.561 7.098-.054 2.011.304 3.662 1.076 4.973.78 1.32 1.911 2.298 3.409 2.95 1.5.657 3.323.987 5.466.987 2.172 0 4.247-.339 6.203-1.014a18.347 18.347 0 005.437-2.953c1.653-1.293 3.15-2.882 4.489-4.784 1.328-1.894 2.432-4.046 3.302-6.461l14.917-41.41c.135-.357.35-.671.662-.957.317-.278.763-.513 1.355-.692.594-.171 1.357-.316 2.289-.42.925-.11 2.064-.166 3.392-.166 1.336 0 2.417.056 3.241.165.816.104 1.461.25 1.92.421.468.179.746.414.853.692.11.286.11.6-.026.958zm59.662-23.983c.494-1.384.726-2.612.7-3.716-.02-1.106-.324-2.009-.907-2.737-.583-.725-1.438-1.283-2.577-1.68-1.147-.385-2.78-.582-4.926-.582h-7.002l-6.432 17.857h7.735c2 0 3.679-.233 5.045-.717a12.918 12.918 0 003.678-1.964 13.542 13.542 0 002.826-2.917 15.127 15.127 0 001.86-3.544m-7.09 29.455c.565-1.597.827-3.015.743-4.281-.072-1.255-.464-2.306-1.165-3.159-.717-.85-1.779-1.509-3.197-1.966-1.416-.468-3.382-.69-5.904-.69h-8.212l-7.045 19.555h9.998c1.93 0 3.618-.195 5.082-.602a15.053 15.053 0 004.082-1.814 14.394 14.394 0 003.337-2.977c.97-1.186 1.725-2.538 2.28-4.066m14.54-.476c-.882 2.44-2.013 4.657-3.404 6.652a29.805 29.805 0 01-4.657 5.259 30.993 30.993 0 01-5.626 3.932 36.47 36.47 0 01-6.372 2.706 41.423 41.423 0 01-6.858 1.572c-2.341.341-4.89.504-7.627.504H82.499c-1.158 0-2.01-.342-2.559-1.043-.536-.684-.52-1.803.037-3.373l21.612-59.97c.564-1.554 1.363-2.675 2.404-3.376 1.042-.69 2.138-1.032 3.294-1.032h17.106c4.172 0 7.584.35 10.22 1.06 2.64.709 4.695 1.776 6.158 3.222 1.464 1.426 2.325 3.248 2.585 5.447.27 2.2-.134 4.783-1.21 7.762a22.989 22.989 0 01-2.336 4.705 23.234 23.234 0 01-3.274 4.01 24.224 24.224 0 01-4.128 3.196 23.193 23.193 0 01-4.829 2.225c1.796.358 3.349.978 4.669 1.867a9.001 9.001 0 013.023 3.43c.709 1.4 1.077 3.04 1.103 4.917.02 1.877-.385 3.985-1.229 6.328m50.908 15.154a26.81 26.81 0 01-1.06 2.574c-.34.693-.665 1.247-1.003 1.668-.325.434-.657.74-.99.935-.33.199-.654.297-.975.297H147.81c-1.147 0-1.999-.35-2.538-1.042-.548-.692-.54-1.812.024-3.373l21.613-59.97c.556-1.564 1.365-2.685 2.395-3.374 1.041-.692 2.147-1.043 3.303-1.043h33.998c.32 0 .564.099.743.27.19.178.278.495.308.924.017.448-.064 1.022-.224 1.704-.164.7-.433 1.572-.818 2.631-.359.997-.71 1.841-1.042 2.533-.342.687-.662 1.244-.996 1.675-.333.424-.654.73-.97.925-.312.196-.628.297-.952.297h-24.312l-6.048 16.799h20.579c.316 0 .565.101.763.288.189.197.304.504.333.905.025.415-.046.961-.207 1.654a23.472 23.472 0 01-.772 2.521c-.379 1.031-.729 1.875-1.06 2.55-.323.673-.647 1.22-.977 1.623-.315.406-.646.7-.97.882-.333.177-.646.269-.97.269h-20.57l-6.991 19.4h24.52c.32 0 .573.1.772.29.189.195.295.501.312.93.028.423-.043.989-.207 1.677a26.5 26.5 0 01-.796 2.58m64.935-43.017c.816-2.26 1.006-4.183.547-5.736-.457-1.561-1.733-2.656-3.822-3.3-.629-.18-1.374-.315-2.236-.425-.851-.105-2.073-.16-3.652-.16h-6.212l-7.026 19.511h7.056c1.966 0 3.758-.232 5.41-.717 1.651-.476 3.115-1.152 4.408-2.02a13.547 13.547 0 003.337-3.116 14.826 14.826 0 002.19-4.037m1.023 46.68a3.036 3.036 0 01-.565.986c-.236.261-.646.485-1.24.666-.59.177-1.4.303-2.45.376-1.042.062-2.44.099-4.201.099-1.469 0-2.637-.036-3.489-.099-.844-.073-1.49-.207-1.93-.405-.44-.189-.71-.446-.816-.743-.1-.297-.134-.664-.126-1.088l-.566-15.366c-.118-1.74-.277-3.285-.493-4.63-.224-1.347-.602-2.468-1.122-3.373a5.161 5.161 0 00-2.243-2.04c-.953-.465-2.182-.698-3.644-.698h-4.318l-9.449 26.204a2.246 2.246 0 01-.684.962c-.332.285-.788.51-1.382.692-.584.179-1.337.322-2.262.429-.915.1-2.053.154-3.42.154-1.336 0-2.43-.054-3.282-.154-.863-.107-1.517-.25-1.977-.429-.474-.182-.753-.407-.86-.692-.107-.278-.098-.6.028-.962l22.508-62.465c.565-1.56 1.364-2.682 2.406-3.374 1.03-.689 2.136-1.04 3.292-1.04h17.637c1.785 0 3.247.045 4.378.116a49.363 49.363 0 013.061.263c2.603.384 4.819 1.067 6.669 2.017 1.848.959 3.256 2.209 4.227 3.753.97 1.544 1.48 3.364 1.534 5.466.044 2.116-.43 4.53-1.408 7.257-.835 2.317-1.877 4.408-3.142 6.311a26.76 26.76 0 01-4.379 5.072 28.599 28.599 0 01-5.557 3.886 33.265 33.265 0 01-6.596 2.655 9.158 9.158 0 012.217 1.805c.646.71 1.176 1.57 1.599 2.584.43 1.006.762 2.163.995 3.446.232 1.304.393 2.766.476 4.4l.851 13.55c.035 1.338.035 2.324-.017 2.943-.045.622-.133 1.115-.26 1.466m86.074-1.755c-.51.856-1.052 1.535-1.616 2.05-.547.509-1.24.904-2.075 1.164-.834.272-1.848.448-3.031.538-1.186.093-2.684.135-4.468.135-2.004 0-3.593-.042-4.767-.135-1.176-.09-2.074-.266-2.677-.538-.608-.26-.978-.655-1.11-1.165-.126-.514-.126-1.193 0-2.049l4.817-43.588h-.105l-26.028 43.588c-.468.818-.953 1.49-1.454 1.992-.504.524-1.148.917-1.928 1.194-.793.288-1.788.476-3 .566-1.202.093-2.774.135-4.701.135-2.03 0-3.644-.042-4.821-.135-1.183-.09-2.072-.266-2.674-.538-.609-.261-.979-.656-1.102-1.165-.134-.514-.155-1.194-.054-2.05l6.153-60.013c.146-1.28.324-2.289.557-3.006.227-.726.62-1.29 1.215-1.68.573-.383 1.38-.626 2.412-.716 1.024-.087 2.442-.135 4.227-.135 1.652 0 2.944.025 3.896.08.942.055 1.625.18 2.055.368.412.208.646.485.691.863.046.367-.008.888-.144 1.56l-7.045 52.685h.063l31.27-52.317c.375-.661.762-1.22 1.147-1.64.378-.422.881-.756 1.509-.98.629-.233 1.426-.394 2.413-.484.98-.087 2.252-.135 3.834-.135 1.687 0 3.016.036 3.993.11.977.072 1.689.223 2.153.447.459.233.73.565.826.987.09.423.082.994-.036 1.695l-6.003 52.317h.11l30.87-52.533c.307-.555.62-1.04.952-1.455.314-.4.763-.725 1.338-.95.573-.232 1.337-.394 2.28-.484.942-.087 2.233-.135 3.894-.135 1.535 0 2.72.048 3.555.135.823.09 1.363.333 1.616.717.231.39.194.97-.128 1.735-.332.754-.888 1.794-1.678 3.104zm71.39-1.907a28.037 28.037 0 01-1.057 2.574c-.342.693-.667 1.247-1.008 1.668-.322.434-.654.74-.988.935-.33.199-.654.297-.978.297h-34.21c-1.149 0-2-.35-2.548-1.042-.54-.692-.531-1.812.034-3.373l21.611-59.97c.556-1.564 1.366-2.685 2.396-3.374 1.042-.692 2.146-1.043 3.302-1.043h33.999c.322 0 .565.099.743.27.19.178.286.495.307.924.01.448-.062 1.022-.227 1.704-.16.7-.43 1.572-.815 2.631a23.03 23.03 0 01-1.05 2.533c-.325.687-.654 1.244-.987 1.675-.332.424-.657.73-.97.925a1.798 1.798 0 01-.952.297h-24.312l-6.057 16.799h20.579c.325 0 .566.101.772.288.189.197.295.504.324.905.035.415-.037.961-.198 1.654a23.203 23.203 0 01-.772 2.521 27.738 27.738 0 01-1.058 2.55c-.333.673-.657 1.22-.98 1.623-.323.406-.635.7-.969.882-.332.177-.654.269-.97.269h-20.578l-6.992 19.4h24.52c.32 0 .573.1.772.29.187.195.296.501.32.93.03.423-.043.989-.205 1.677-.16.685-.43 1.555-.798 2.58m29.361 3.559c-.126.358-.35.675-.684.96-.332.278-.789.51-1.383.681-.59.18-1.336.323-2.26.432-.916.107-2.055.163-3.418.163-1.336 0-2.432-.056-3.285-.163-.86-.109-1.517-.252-1.982-.432-.469-.171-.764-.403-.882-.68-.134-.286-.126-.603 0-.961l23.408-64.972a2.32 2.32 0 01.69-.95c.331-.286.808-.51 1.408-.689.61-.182 1.365-.325 2.29-.432.915-.1 2.037-.16 3.374-.16 1.363 0 2.468.06 3.31.16.836.107 1.49.25 1.95.432.467.179.763.403.89.69.122.28.122.602-.012.95zm67.409-18.712c-1.312 3.617-3.125 6.786-5.43 9.516-2.325 2.737-4.945 5.006-7.889 6.829a35.513 35.513 0 01-9.486 4.127 39.173 39.173 0 01-10.286 1.373c-2.35 0-4.468-.199-6.344-.583-1.877-.387-3.493-.853-4.838-1.4-1.338-.557-2.422-1.13-3.24-1.733-.817-.6-1.384-1.132-1.66-1.597-.288-.457-.385-1.121-.26-1.992.115-.871.466-2.118 1.06-3.752.393-1.096.76-2.02 1.102-2.757.34-.75.674-1.354.997-1.81.323-.47.646-.793.988-.978.33-.199.671-.3 1.021-.3.493 0 1.079.3 1.767.874.683.59 1.599 1.239 2.749 1.948 1.148.7 2.594 1.353 4.325 1.936 1.732.585 3.887.882 6.444.882 1.687 0 3.265-.207 4.749-.622a14.988 14.988 0 004.019-1.723 12.467 12.467 0 003.122-2.763 12.649 12.649 0 002.067-3.671c.565-1.564.619-2.89.177-4.01-.438-1.123-1.174-2.112-2.215-2.973-1.04-.88-2.28-1.686-3.715-2.452a180.953 180.953 0 01-4.454-2.42 29.604 29.604 0 01-4.27-2.9 12.612 12.612 0 01-3.213-3.878c-.809-1.505-1.257-3.284-1.367-5.347-.096-2.049.37-4.514 1.412-7.386 1.183-3.295 2.826-6.193 4.945-8.697 2.108-2.498 4.488-4.568 7.136-6.213a31.205 31.205 0 018.596-3.696 36.122 36.122 0 019.309-1.221c1.615 0 3.176.126 4.71.37 1.527.248 2.907.583 4.163 1.014 1.24.42 2.317.896 3.215 1.435.898.53 1.463.97 1.679 1.319.223.358.35.664.383.913.038.243.021.578-.034.977-.055.416-.18.926-.377 1.545a52.302 52.302 0 01-.772 2.318 51.974 51.974 0 01-1.024 2.592c-.315.717-.602 1.302-.89 1.759-.293.46-.589.801-.898 1.017a1.791 1.791 0 01-1.029.311c-.387 0-.915-.24-1.58-.734-.654-.501-1.498-1.042-2.523-1.625-1.012-.594-2.244-1.12-3.687-1.597-1.437-.485-3.124-.718-5.053-.718-1.509 0-2.9.189-4.146.559-1.265.375-2.387.885-3.374 1.54a10.107 10.107 0 00-2.531 2.368 10.494 10.494 0 00-1.616 2.929c-.548 1.518-.61 2.843-.189 3.955.422 1.112 1.164 2.11 2.245 2.982 1.066.86 2.34 1.679 3.83 2.44a154.846 154.846 0 014.488 2.416 33.643 33.643 0 014.335 2.898 12.805 12.805 0 013.285 3.886c.827 1.507 1.284 3.276 1.401 5.312.105 2.038-.341 4.445-1.33 7.208m72.453-4.996c-1.527 4.217-3.5 7.988-5.922 11.317-2.433 3.34-5.251 6.156-8.473 8.454-3.214 2.309-6.785 4.057-10.733 5.268-3.948 1.202-8.194 1.801-12.763 1.801-4.272 0-7.924-.535-10.94-1.622-3.015-1.076-5.304-2.718-6.867-4.917-1.552-2.2-2.366-4.926-2.42-8.213-.073-3.273.69-7.106 2.27-11.505l15.077-41.841c.126-.358.342-.672.663-.958.315-.278.771-.513 1.374-.692.61-.171 1.374-.316 2.29-.42.924-.11 2.063-.166 3.428-.166 1.338 0 2.422.056 3.257.165.835.104 1.489.25 1.957.421.457.179.75.414.869.692.136.286.136.6 0 .958l-14.627 40.613c-.988 2.735-1.509 5.106-1.563 7.098-.053 2.011.306 3.662 1.078 4.973.772 1.32 1.911 2.298 3.409 2.95 1.5.657 3.322.987 5.465.987 2.163 0 4.238-.339 6.203-1.014a18.401 18.401 0 005.438-2.953c1.661-1.293 3.16-2.882 4.488-4.784 1.327-1.894 2.433-4.046 3.302-6.461l14.926-41.41c.126-.357.342-.671.654-.957.315-.278.764-.513 1.354-.692.593-.171 1.357-.316 2.29-.42.932-.11 2.063-.166 3.39-.166 1.339 0 2.417.056 3.244.165.813.104 1.46.25 1.919.421.468.179.745.414.852.692.117.286.109.6-.017.958zm68.277 20.73a7.345 7.345 0 01-1.211 2.18 7.681 7.681 0 01-1.698 1.59 6.477 6.477 0 01-2.018.931 7.843 7.843 0 01-2.083.297h-5.895c-1.23 0-2.245-.126-3.052-.375a3.886 3.886 0 01-1.985-1.357c-.519-.647-.924-1.533-1.227-2.656-.296-1.112-.567-2.559-.801-4.326l-5.365-32.174a119.141 119.141 0 01-.764-6.184 81.987 81.987 0 01-.404-6.464h-.107a322.774 322.774 0 01-2.432 7.63 376.153 376.153 0 01-2.73 7.846l-12.969 35.99c-.123.35-.339.67-.63.957-.293.277-.717.513-1.264.709-.538.196-1.236.35-2.071.457-.853.11-1.912.163-3.176.163-1.224 0-2.22-.054-2.991-.163-.762-.106-1.345-.26-1.733-.457-.384-.196-.608-.432-.688-.709-.072-.288-.046-.607.08-.957l22.283-61.83c.603-1.668 1.527-2.918 2.793-3.753 1.265-.824 2.61-1.244 4.01-1.244h7.423c1.328 0 2.413.107 3.24.34.826.231 1.508.618 2.037 1.148.523.53.933 1.267 1.23 2.208.288.933.52 2.09.693 3.484l4.198 25.137c.227 1.526.45 3.023.674 4.497.224 1.47.43 2.943.6 4.416.172 1.462.333 2.906.485 4.334.164 1.41.298 2.826.421 4.243h.047c.789-2.474 1.64-5.06 2.556-7.761a545.563 545.563 0 012.703-7.701l11.633-32.274c.125-.358.348-.673.662-.96.307-.278.745-.527 1.32-.744.573-.207 1.273-.357 2.108-.45.844-.09 1.894-.135 3.16-.135 1.184 0 2.171.045 2.943.135.78.093 1.347.243 1.706.45.366.217.581.466.654.743.082.288.044.603-.081.961zm93.64-53.218a25.482 25.482 0 01-1.097 2.657c-.353.743-.692 1.348-.997 1.785-.325.443-.628.754-.925.935a1.799 1.799 0 01-.905.259c-.459 0-1.076-.323-1.873-.958-.782-.629-1.89-1.32-3.296-2.075-1.417-.734-3.186-1.433-5.28-2.073-2.106-.638-4.7-.95-7.796-.95a27.115 27.115 0 00-9.566 1.724c-3.08 1.149-5.944 2.78-8.607 4.89-2.659 2.107-5.028 4.648-7.1 7.601-2.083 2.962-3.778 6.229-5.07 9.807-1.416 3.94-2.146 7.406-2.188 10.404-.046 2.987.501 5.5 1.632 7.512 1.13 2.027 2.817 3.545 5.062 4.58 2.243 1.027 4.943 1.544 8.102 1.544 1.535 0 3.142-.183 4.777-.533a23.672 23.672 0 004.783-1.597l5.741-15.95h-12.895c-.628 0-.977-.392-1.041-1.202-.071-.796.25-2.143.942-4.066.358-.986.699-1.821 1.032-2.494.324-.68.655-1.213.97-1.625.333-.403.646-.708.96-.897.315-.196.639-.297.95-.297h23.006c.555 0 1.02.101 1.39.297.367.189.644.474.843.872.196.395.277.86.25 1.407-.017.549-.152 1.177-.404 1.894l-9.869 27.373a9.312 9.312 0 01-1.553 2.79c-.666.799-1.645 1.427-2.956 1.894-1.299.457-2.89.934-4.746 1.435a77.61 77.61 0 01-5.698 1.275 69.85 69.85 0 01-5.762.793 61.2 61.2 0 01-5.654.269c-5.437 0-10.026-.793-13.75-2.363-3.733-1.589-6.551-3.867-8.453-6.857-1.903-2.995-2.864-6.649-2.893-10.958-.026-4.307.945-9.192 2.909-14.647 2.028-5.637 4.695-10.69 7.988-15.176 3.302-4.49 7.062-8.294 11.28-11.436a49.303 49.303 0 0113.786-7.204c4.974-1.661 10.132-2.496 15.508-2.496 2.945 0 5.556.207 7.826.62 2.272.402 4.208.898 5.808 1.479 1.598.583 2.87 1.22 3.822 1.885.941.684 1.57 1.258 1.867 1.76.297.493.386 1.194.268 2.098-.117.911-.493 2.247-1.129 4.015" fill="#3A3A3A"></path></svg>