<svg xmlns:xlink="http://www.w3.org/1999/xlink" xmlns="http://www.w3.org/2000/svg" viewBox="0 0 26.13 24.95" data-keep-fill="" width="26.13"  height="24.95" >
    <g fill="none" stroke="#1D1D1B" stroke-miterlimit="10" stroke-width="2px">
        <path d="M4.65 16.48c-1.12 2.34-2.24 4.68-3.36 7.01L9 20.32" stroke="#1D1D1B" fill="none" stroke-width="2px"></path>
        <path d="M4.72 17.27c-1.3-1.7-2.07-3.77-2.07-6.01C2.65 5.5 7.71.84 13.96.84s11.31 4.67 11.31 10.42-5.06 10.42-11.31 10.42c-2.03 0-3.94-.49-5.59-1.36" stroke="#1D1D1B" fill="none" stroke-width="2px"></path>
    </g>
    <path d="M10.43 8.81c0-.46.15-.93.45-1.41.3-.48.73-.87 1.3-1.18.57-.31 1.24-.47 2-.47.71 0 1.33.13 1.88.39s.96.62 1.26 1.07c.3.45.44.94.44 1.46 0 .42-.08.78-.25 1.09-.17.31-.37.58-.6.81-.23.23-.65.61-1.25 1.15-.17.15-.3.28-.4.4-.1.11-.17.22-.22.31-.05.1-.09.19-.11.29-.03.09-.07.26-.12.5-.09.51-.38.76-.87.76-.25 0-.47-.08-.64-.25-.17-.17-.26-.41-.26-.74 0-.41.06-.77.19-1.06.13-.3.29-.56.5-.79.21-.23.49-.5.85-.81.31-.27.54-.48.68-.62s.26-.29.35-.46c.1-.17.14-.36.14-.56 0-.39-.14-.72-.44-.99-.29-.27-.67-.4-1.12-.4-.54 0-.93.14-1.19.41-.25.27-.47.67-.64 1.2-.17.55-.48.83-.95.83-.27 0-.5-.1-.69-.29-.19-.19-.28-.4-.28-.63ZM14 16.84c-.3 0-.56-.1-.78-.29-.22-.19-.33-.46-.33-.81 0-.31.11-.57.32-.78.21-.21.48-.31.79-.31s.57.11.78.31c.21.21.31.47.31.78 0 .34-.11.61-.33.8-.22.2-.47.29-.76.29Z" fill="#1D1D1B" stroke="#FFFFFF" stroke-miterlimit="10" stroke-width="0.25px"></path>
</svg>