<svg width="18" height="18" viewBox=" 0 0 450 512" xmlns="http://www.w3.org/2000/svg"><path d="M449.77921 128.17524c-29.250583 0-56.297356-9.71328-77.934774-26.035596-24.842961-18.7256014-42.77397-46.2632505-49.084883-77.9065128C321.156781 16.4224526 320.355395 8.31136319 320.255222 0h-83.644648v228.412282l-.100173 125.070996c0 33.445726-21.837765 61.784471-51.989907 71.798161-8.815245 2.903971-18.231528 4.305887-28.048505 3.705066-12.621827-.700958-24.342095-4.506161-34.659938-10.614512-21.8377644-13.017798-36.5632294-36.650108-36.9639223-63.787209-.6010394-42.257774 33.5580323-76.805007 75.8311363-76.805007 8.314378 0 16.328236 1.401917 23.841229 3.805202v-84.715822c-7.913686-1.201643-15.927544-1.802464-24.141749-1.802464-46.280033 0-89.5548687 19.226286-120.5083971 53.873655C16.529985 275.076081 2.50573263 308.521807.30192154 343.569724c-2.80485047 45.96284 14.02425236 89.722668 46.68072576 121.966752 4.8083151 4.706434 9.8169767 9.112458 15.1261579 13.218071C90.0571367 500.283982 124.316382 512 160.378745 512c8.114032 0 16.228063-.600821 24.141749-1.802464 33.658205-5.006846 64.711907-20.427929 89.254349-44.66106 30.152142-29.740661 46.780899-69.294739 46.981245-111.35224l-.400693-186.855466c14.324772 11.115196 30.05197 20.227655 46.981246 27.337375 26.245386 11.115197 54.093545 16.622727 82.642915 16.622727v-83.213769c.100174.100137-.200346.100137-.200346.100137Z" fill="#000" fill-rule="nonzero"></path></svg>